<svg id="Capa_1" enable-background="new 0 0 511.03 511.03" height="512" viewBox="0 0 511.03 511.03" width="512" xmlns="http://www.w3.org/2000/svg" xmlns:xlink="http://www.w3.org/1999/xlink">
    <linearGradient id="SVGID_1_" gradientUnits="userSpaceOnUse" x1="338.527" x2="338.527" y1="7.53" y2="141.759">
        <stop offset=".00000036422" stop-color="#a7acff" />
        <stop offset="1" stop-color="#ffc8ff" />
    </linearGradient>
    <linearGradient id="SVGID_2_" gradientUnits="userSpaceOnUse" x1="235.525" x2="235.525" y1="243.53" y2="503.53">
        <stop offset=".00000083866" stop-color="#75d1f4" />
        <stop offset="1" stop-color="#b3fff3" />
    </linearGradient>
    <linearGradient id="SVGID_3_" gradientUnits="userSpaceOnUse" x1="255.515" x2="255.515" y1="0" y2="511.03">
        <stop offset="0" stop-color="#004ea6" />
        <stop offset="1" stop-color="#ca42b2" />
    </linearGradient>
    <g id="Filled_23_">
        <path d="m241.529 73.355c18.889-51.898 76.273-78.656 128.171-59.767s78.656 76.273 59.767 128.171z" fill="url(#SVGID_1_)" />
        <path d="m142.525 96.53-65-15v-32l92 21 16 83h-32z" fill="#fff" />
        <path d="m182.185 243.53 53.333 20 53.331-20 53.338 20 53.338-20-75-90h-170l-75 90 53.33 20z" fill="#fff" />
        <path d="m342.187 263.53-53.338-20-53.331 20-53.333-20-53.33 20-53.329-20v100c0 88.365 71.634 160 160 160 88.365 0 160-71.634 160-160v-100z" fill="url(#SVGID_2_)" />
        <path d="m372.266 6.54c-26.982-9.821-56.176-8.547-82.199 3.589-26.023 12.135-45.765 33.678-55.585 60.661l-2.564 7.047 93.968 34.202-12.372 33.991h-121.796l-15.754-81.723-105.939-24.182v47.371l66.061 15.245 8.837 45.796-76.898 92.277v102.716c0 92.36 75.141 167.5 167.5 167.5s167.5-75.14 167.5-167.5v-102.715l-75.202-90.242 12.158-33.403 93.969 34.202 2.565-7.048c20.273-55.701-8.549-117.51-64.249-137.784zm-55.253 154.49 65.989 79.186-40.814 15.304-53.339-20-53.331 20-53.333-20-53.33 20-40.805-15.303 65.989-79.187zm-231.988-85.466v-16.629l78.062 17.818 13.355 69.277h-16.725l-10.752-55.711zm150.5 420.466c-84.089 0-152.5-68.411-152.5-152.5v-89.177l45.829 17.187 53.33-20 53.333 20 53.331-20 53.339 20 45.838-17.188v89.178c0 84.089-68.411 152.5-152.5 152.5zm60.881-472.306c11.234-5.239 23.155-8.123 35.178-8.631-3.433 2.423-6.869 5.249-10.282 8.48-14.703 13.921-27.726 34.091-37.132 57.322l-32.749-11.92c9.123-19.965 24.873-35.873 44.985-45.251zm1.867 62.303c8.584-21.052 20.266-39.182 33.342-51.562 9.799-9.278 19.581-14.416 27.918-14.873l-28.518 78.352zm75.356-61.304c6.093 5.709 10.283 15.933 11.826 29.338 2.058 17.889-.646 39.286-7.602 60.931l-32.742-11.917zm51.073 107.32-32.747-11.919c7.727-23.841 10.716-47.664 8.401-67.779-.532-4.623-1.336-8.957-2.393-12.986 24.966 22.93 36.121 58.602 26.739 92.684z" fill="url(#SVGID_3_)" />
    </g>
</svg>